<svg xmlns="http://www.w3.org/2000/svg" style="display: none;">
    <symbol id="fork" viewBox="0 0 24 24">
        <path d="M21 3c0-1.657-1.343-3-3-3s-3 1.343-3 3c0 1.323.861 2.433 2.05 2.832.168 4.295-2.021 4.764-4.998 5.391-1.709.36-3.642.775-5.052 2.085v-7.492c1.163-.413 2-1.511 2-2.816 0-1.657-1.343-3-3-3s-3 1.343-3 3c0 1.305.837 2.403 2 2.816v12.367c-1.163.414-2 1.512-2 2.817 0 1.657 1.343 3 3 3s3-1.343 3-3c0-1.295-.824-2.388-1.973-2.808.27-3.922 2.57-4.408 5.437-5.012 3.038-.64 6.774-1.442 6.579-7.377 1.141-.425 1.957-1.514 1.957-2.803zm-16.8 0c0-.993.807-1.8 1.8-1.8s1.8.807 1.8 1.8-.807 1.8-1.8 1.8-1.8-.807-1.8-1.8zm3.6 18c0 .993-.807 1.8-1.8 1.8s-1.8-.807-1.8-1.8.807-1.8 1.8-1.8 1.8.807 1.8 1.8zm10.2-16.2c-.993 0-1.8-.807-1.8-1.8s.807-1.8 1.8-1.8 1.8.807 1.8 1.8-.807 1.8-1.8 1.8z"></path>
    </symbol>
    <symbol id="github" viewBox="0 0 24 24">
        <path d="M12 0c-6.626 0-12 5.373-12 12 0 5.302 3.438 9.8 8.207 11.387.599.111.793-.261.793-.577v-2.234c-3.338.726-4.033-1.416-4.033-1.416-.546-1.387-1.333-1.756-1.333-1.756-1.089-.745.083-.729.083-.729 1.205.084 1.839 1.237 1.839 1.237 1.07 1.834 2.807 1.304 3.492.997.107-.775.418-1.305.762-1.604-2.665-.305-5.467-1.334-5.467-5.931 0-1.311.469-2.381 1.236-3.221-.124-.303-.535-1.524.117-3.176 0 0 1.008-.322 3.301 1.23.957-.266 1.983-.399 3.003-.404 1.02.005 2.047.138 3.006.404 2.291-1.552 3.297-1.23 3.297-1.23.653 1.653.242 2.874.118 3.176.77.84 1.235 1.911 1.235 3.221 0 4.609-2.807 5.624-5.479 5.921.43.372.823 1.102.823 2.222v3.293c0 .319.192.694.801.576 4.765-1.589 8.199-6.086 8.199-11.386 0-6.627-5.373-12-12-12z"/>
    </symbol>
    <symbol id="mail" viewBox="0 0 24 24">
        <path d="M12 .02c-6.627 0-12 5.373-12 12s5.373 12 12 12 12-5.373 12-12-5.373-12-12-12zm6.99 6.98l-6.99 5.666-6.991-5.666h13.981zm.01 10h-14v-8.505l7 5.673 7-5.672v8.504z"/>
    </symbol>
    <symbol id="facebook" viewBox="0 0 24 24">
        <path d="M12 0c-6.627 0-12 5.373-12 12s5.373 12 12 12 12-5.373 12-12-5.373-12-12-12zm3 8h-1.35c-.538 0-.65.221-.65.778v1.222h2l-.209 2h-1.791v7h-3v-7h-2v-2h2v-2.308c0-1.769.931-2.692 3.029-2.692h1.971v3z"/>
    </symbol>
    <symbol id="linkedin" viewBox="0 0 24 24">
        <path d="M12 0c-6.627 0-12 5.373-12 12s5.373 12 12 12 12-5.373 12-12-5.373-12-12-12zm-2 16h-2v-6h2v6zm-1-6.891c-.607 0-1.1-.496-1.1-1.109 0-.612.492-1.109 1.1-1.109s1.1.497 1.1 1.109c0 .613-.493 1.109-1.1 1.109zm8 6.891h-1.998v-2.861c0-1.881-2.002-1.722-2.002 0v2.861h-2v-6h2v1.093c.872-1.616 4-1.736 4 1.548v3.359z"/>
    </symbol>
    <symbol id="close" viewBox="0 0 24 24">
        <path d="M5 3l3.057-3 11.943 12-11.943 12-3.057-3 9-9z"></path>
    </symbol>
    <symbol id="resume" viewBox="0 0 24 24">
        <path d="M4 22v-20h16v11.543c0 4.107-6 2.457-6 2.457s1.518 6-2.638 6h-7.362zm18-7.614v-14.386h-20v24h10.189c3.163 0 9.811-7.223 9.811-9.614zm-5-1.386h-10v-1h10v1zm0-4h-10v1h10v-1zm0-3h-10v1h10v-1z"></path>
    </symbol>
    <symbol id="loading" viewBox="0 0 24 24">
        <path d="M12.979 3.055c4.508.489 8.021 4.306 8.021 8.945.001 2.698-1.194 5.113-3.075 6.763l-1.633-1.245c1.645-1.282 2.709-3.276 2.708-5.518 0-3.527-2.624-6.445-6.021-6.923v2.923l-5.25-4 5.25-4v3.055zm-1.979 15.865c-3.387-.486-6-3.401-6.001-6.92 0-2.237 1.061-4.228 2.697-5.509l-1.631-1.245c-1.876 1.65-3.066 4.061-3.065 6.754-.001 4.632 3.502 8.444 8 8.942v3.058l5.25-4-5.25-4v2.92z"/>
    </symbol>
</svg>